<!DOCTYPE svg PUBLIC "-//W3C//DTD SVG 1.1//EN" "http://www.w3.org/Graphics/SVG/1.1/DTD/svg11.dtd">
<svg xmlns="http://www.w3.org/2000/svg" xmlns:xlink="http://www.w3.org/1999/xlink" version="1.1" width="643px" height="362px" viewBox="-0.5 -0.5 643 362"><defs/><g><path d="M 21 41 L 21 61 L 41 61 L 41 72.76" fill="none" stroke="#000000" stroke-width="2" stroke-miterlimit="10" pointer-events="stroke"/><path d="M 41 78.76 L 37 70.76 L 41 72.76 L 45 70.76 Z" fill="#000000" stroke="#000000" stroke-width="2" stroke-miterlimit="10" pointer-events="all"/><rect x="1" y="1" width="40" height="40" fill-opacity="0.4" fill="#dae8fc" stroke="#6c8ebf" stroke-opacity="0.4" stroke-width="2" pointer-events="all"/><path d="M 61 41 L 61 61 L 41 61 L 41 72.76" fill="none" stroke="#000000" stroke-width="2" stroke-miterlimit="10" pointer-events="stroke"/><path d="M 41 78.76 L 37 70.76 L 41 72.76 L 45 70.76 Z" fill="#000000" stroke="#000000" stroke-width="2" stroke-miterlimit="10" pointer-events="all"/><rect x="41" y="1" width="40" height="40" fill-opacity="0.4" fill="#dae8fc" stroke="#6c8ebf" stroke-opacity="0.4" stroke-width="2" pointer-events="all"/><path d="M 101 41 L 101 61 L 121 61 L 121 72.76" fill="none" stroke="#000000" stroke-width="2" stroke-miterlimit="10" pointer-events="stroke"/><path d="M 121 78.76 L 117 70.76 L 121 72.76 L 125 70.76 Z" fill="#000000" stroke="#000000" stroke-width="2" stroke-miterlimit="10" pointer-events="all"/><rect x="81" y="1" width="40" height="40" fill-opacity="0.4" fill="#dae8fc" stroke="#6c8ebf" stroke-opacity="0.4" stroke-width="2" pointer-events="all"/><path d="M 141 41 L 141 61 L 121 61 L 121 72.76" fill="none" stroke="#000000" stroke-width="2" stroke-miterlimit="10" pointer-events="stroke"/><path d="M 121 78.76 L 117 70.76 L 121 72.76 L 125 70.76 Z" fill="#000000" stroke="#000000" stroke-width="2" stroke-miterlimit="10" pointer-events="all"/><rect x="121" y="1" width="40" height="40" fill-opacity="0.4" fill="#dae8fc" stroke="#6c8ebf" stroke-opacity="0.4" stroke-width="2" pointer-events="all"/><path d="M 181 41 L 181 61 L 201 61 L 201 72.76" fill="none" stroke="#000000" stroke-width="2" stroke-miterlimit="10" pointer-events="stroke"/><path d="M 201 78.76 L 197 70.76 L 201 72.76 L 205 70.76 Z" fill="#000000" stroke="#000000" stroke-width="2" stroke-miterlimit="10" pointer-events="all"/><rect x="161" y="1" width="40" height="40" fill-opacity="0.4" fill="#dae8fc" stroke="#6c8ebf" stroke-opacity="0.4" stroke-width="2" pointer-events="all"/><path d="M 221 41 L 221 61 L 201 61 L 201 72.76" fill="none" stroke="#000000" stroke-width="2" stroke-miterlimit="10" pointer-events="stroke"/><path d="M 201 78.76 L 197 70.76 L 201 72.76 L 205 70.76 Z" fill="#000000" stroke="#000000" stroke-width="2" stroke-miterlimit="10" pointer-events="all"/><rect x="201" y="1" width="40" height="40" fill-opacity="0.4" fill="#dae8fc" stroke="#6c8ebf" stroke-opacity="0.4" stroke-width="2" pointer-events="all"/><path d="M 261 41 L 261 61 L 281 61 L 281 72.76" fill="none" stroke="#000000" stroke-width="2" stroke-miterlimit="10" pointer-events="stroke"/><path d="M 281 78.76 L 277 70.76 L 281 72.76 L 285 70.76 Z" fill="#000000" stroke="#000000" stroke-width="2" stroke-miterlimit="10" pointer-events="all"/><rect x="241" y="1" width="40" height="40" fill-opacity="0.4" fill="#dae8fc" stroke="#6c8ebf" stroke-opacity="0.4" stroke-width="2" pointer-events="all"/><path d="M 301 41 L 301 61 L 281 61 L 281 72.76" fill="none" stroke="#000000" stroke-width="2" stroke-miterlimit="10" pointer-events="stroke"/><path d="M 281 78.76 L 277 70.76 L 281 72.76 L 285 70.76 Z" fill="#000000" stroke="#000000" stroke-width="2" stroke-miterlimit="10" pointer-events="all"/><rect x="281" y="1" width="40" height="40" fill-opacity="0.4" fill="#dae8fc" stroke="#6c8ebf" stroke-opacity="0.4" stroke-width="2" pointer-events="all"/><path d="M 341 41 L 341 61 L 361 61 L 361 72.76" fill="none" stroke="#000000" stroke-width="2" stroke-miterlimit="10" pointer-events="stroke"/><path d="M 361 78.76 L 357 70.76 L 361 72.76 L 365 70.76 Z" fill="#000000" stroke="#000000" stroke-width="2" stroke-miterlimit="10" pointer-events="all"/><rect x="321" y="1" width="40" height="40" fill-opacity="0.4" fill="#dae8fc" stroke="#6c8ebf" stroke-opacity="0.4" stroke-width="2" pointer-events="all"/><path d="M 381 41 L 381 61 L 361 61 L 361 72.76" fill="none" stroke="#000000" stroke-width="2" stroke-miterlimit="10" pointer-events="stroke"/><path d="M 361 78.76 L 357 70.76 L 361 72.76 L 365 70.76 Z" fill="#000000" stroke="#000000" stroke-width="2" stroke-miterlimit="10" pointer-events="all"/><rect x="361" y="1" width="40" height="40" fill-opacity="0.4" fill="#dae8fc" stroke="#6c8ebf" stroke-opacity="0.4" stroke-width="2" pointer-events="all"/><path d="M 421 41 L 421 61 L 441 61 L 441 72.76" fill="none" stroke="#000000" stroke-width="2" stroke-miterlimit="10" pointer-events="stroke"/><path d="M 441 78.76 L 437 70.76 L 441 72.76 L 445 70.76 Z" fill="#000000" stroke="#000000" stroke-width="2" stroke-miterlimit="10" pointer-events="all"/><rect x="401" y="1" width="40" height="40" fill-opacity="0.4" fill="#dae8fc" stroke="#6c8ebf" stroke-opacity="0.4" stroke-width="2" pointer-events="all"/><path d="M 461 41 L 461 61 L 441 61 L 441 72.76" fill="none" stroke="#000000" stroke-width="2" stroke-miterlimit="10" pointer-events="stroke"/><path d="M 441 78.76 L 437 70.76 L 441 72.76 L 445 70.76 Z" fill="#000000" stroke="#000000" stroke-width="2" stroke-miterlimit="10" pointer-events="all"/><rect x="441" y="1" width="40" height="40" fill-opacity="0.4" fill="#dae8fc" stroke="#6c8ebf" stroke-opacity="0.4" stroke-width="2" pointer-events="all"/><path d="M 501 41 L 501 61 L 521 61 L 521 72.76" fill="none" stroke="#000000" stroke-width="2" stroke-miterlimit="10" pointer-events="stroke"/><path d="M 521 78.76 L 517 70.76 L 521 72.76 L 525 70.76 Z" fill="#000000" stroke="#000000" stroke-width="2" stroke-miterlimit="10" pointer-events="all"/><rect x="481" y="1" width="40" height="40" fill-opacity="0.4" fill="#dae8fc" stroke="#6c8ebf" stroke-opacity="0.4" stroke-width="2" pointer-events="all"/><path d="M 541 41 L 541 61 L 521 61 L 521 72.76" fill="none" stroke="#000000" stroke-width="2" stroke-miterlimit="10" pointer-events="stroke"/><path d="M 521 78.76 L 517 70.76 L 521 72.76 L 525 70.76 Z" fill="#000000" stroke="#000000" stroke-width="2" stroke-miterlimit="10" pointer-events="all"/><rect x="521" y="1" width="40" height="40" fill-opacity="0.4" fill="#dae8fc" stroke="#6c8ebf" stroke-opacity="0.4" stroke-width="2" pointer-events="all"/><path d="M 581 41 L 581 61 L 601 61 L 601 72.76" fill="none" stroke="#000000" stroke-width="2" stroke-miterlimit="10" pointer-events="stroke"/><path d="M 601 78.76 L 597 70.76 L 601 72.76 L 605 70.76 Z" fill="#000000" stroke="#000000" stroke-width="2" stroke-miterlimit="10" pointer-events="all"/><rect x="561" y="1" width="40" height="40" fill-opacity="0.4" fill="#dae8fc" stroke="#6c8ebf" stroke-opacity="0.4" stroke-width="2" pointer-events="all"/><path d="M 621 41 L 621 61 L 601 61 L 601 72.76" fill="none" stroke="#000000" stroke-width="2" stroke-miterlimit="10" pointer-events="stroke"/><path d="M 601 78.76 L 597 70.76 L 601 72.76 L 605 70.76 Z" fill="#000000" stroke="#000000" stroke-width="2" stroke-miterlimit="10" pointer-events="all"/><rect x="601" y="1" width="40" height="40" fill-opacity="0.4" fill="#dae8fc" stroke="#6c8ebf" stroke-opacity="0.4" stroke-width="2" pointer-events="all"/><path d="M 41 121 L 41 141 L 81 141 L 81 152.76" fill="none" stroke="#000000" stroke-width="2" stroke-miterlimit="10" pointer-events="stroke"/><path d="M 81 158.76 L 77 150.76 L 81 152.76 L 85 150.76 Z" fill="#000000" stroke="#000000" stroke-width="2" stroke-miterlimit="10" pointer-events="all"/><rect x="21" y="81" width="40" height="40" fill-opacity="0.55" fill="#dae8fc" stroke="#6c8ebf" stroke-opacity="0.55" stroke-width="2" pointer-events="all"/><path d="M 121 121 L 121 141 L 81 141 L 81 152.76" fill="none" stroke="#000000" stroke-width="2" stroke-miterlimit="10" pointer-events="stroke"/><path d="M 81 158.76 L 77 150.76 L 81 152.76 L 85 150.76 Z" fill="#000000" stroke="#000000" stroke-width="2" stroke-miterlimit="10" pointer-events="all"/><rect x="101" y="81" width="40" height="40" fill-opacity="0.55" fill="#dae8fc" stroke="#6c8ebf" stroke-opacity="0.55" stroke-width="2" pointer-events="all"/><path d="M 201 121 L 201 141 L 241 141 L 241 152.76" fill="none" stroke="#000000" stroke-width="2" stroke-miterlimit="10" pointer-events="stroke"/><path d="M 241 158.76 L 237 150.76 L 241 152.76 L 245 150.76 Z" fill="#000000" stroke="#000000" stroke-width="2" stroke-miterlimit="10" pointer-events="all"/><rect x="181" y="81" width="40" height="40" fill-opacity="0.55" fill="#dae8fc" stroke="#6c8ebf" stroke-opacity="0.55" stroke-width="2" pointer-events="all"/><path d="M 281 121 L 281 141 L 241 141 L 241 152.76" fill="none" stroke="#000000" stroke-width="2" stroke-miterlimit="10" pointer-events="stroke"/><path d="M 241 158.76 L 237 150.76 L 241 152.76 L 245 150.76 Z" fill="#000000" stroke="#000000" stroke-width="2" stroke-miterlimit="10" pointer-events="all"/><rect x="261" y="81" width="40" height="40" fill-opacity="0.55" fill="#dae8fc" stroke="#6c8ebf" stroke-opacity="0.55" stroke-width="2" pointer-events="all"/><path d="M 361 121 L 361 141 L 401 141 L 401 152.76" fill="none" stroke="#000000" stroke-width="2" stroke-miterlimit="10" pointer-events="stroke"/><path d="M 401 158.76 L 397 150.76 L 401 152.76 L 405 150.76 Z" fill="#000000" stroke="#000000" stroke-width="2" stroke-miterlimit="10" pointer-events="all"/><rect x="341" y="81" width="40" height="40" fill-opacity="0.55" fill="#dae8fc" stroke="#6c8ebf" stroke-opacity="0.55" stroke-width="2" pointer-events="all"/><path d="M 441 121 L 441 141 L 401 141 L 401 152.76" fill="none" stroke="#000000" stroke-width="2" stroke-miterlimit="10" pointer-events="stroke"/><path d="M 401 158.76 L 397 150.76 L 401 152.76 L 405 150.76 Z" fill="#000000" stroke="#000000" stroke-width="2" stroke-miterlimit="10" pointer-events="all"/><rect x="421" y="81" width="40" height="40" fill-opacity="0.55" fill="#dae8fc" stroke="#6c8ebf" stroke-opacity="0.55" stroke-width="2" pointer-events="all"/><path d="M 521 121 L 521 141 L 561 141 L 561 152.76" fill="none" stroke="#000000" stroke-width="2" stroke-miterlimit="10" pointer-events="stroke"/><path d="M 561 158.76 L 557 150.76 L 561 152.76 L 565 150.76 Z" fill="#000000" stroke="#000000" stroke-width="2" stroke-miterlimit="10" pointer-events="all"/><rect x="501" y="81" width="40" height="40" fill-opacity="0.55" fill="#dae8fc" stroke="#6c8ebf" stroke-opacity="0.55" stroke-width="2" pointer-events="all"/><path d="M 601 121 L 601 141 L 561 141 L 561 152.76" fill="none" stroke="#000000" stroke-width="2" stroke-miterlimit="10" pointer-events="stroke"/><path d="M 561 158.76 L 557 150.76 L 561 152.76 L 565 150.76 Z" fill="#000000" stroke="#000000" stroke-width="2" stroke-miterlimit="10" pointer-events="all"/><rect x="581" y="81" width="40" height="40" fill-opacity="0.55" fill="#dae8fc" stroke="#6c8ebf" stroke-opacity="0.55" stroke-width="2" pointer-events="all"/><path d="M 81 201 L 81 221 L 161 221 L 161 232.76" fill="none" stroke="#000000" stroke-width="2" stroke-miterlimit="10" pointer-events="stroke"/><path d="M 161 238.76 L 157 230.76 L 161 232.76 L 165 230.76 Z" fill="#000000" stroke="#000000" stroke-width="2" stroke-miterlimit="10" pointer-events="all"/><rect x="61" y="161" width="40" height="40" fill-opacity="0.7" fill="#dae8fc" stroke="#6c8ebf" stroke-opacity="0.7" stroke-width="2" pointer-events="all"/><path d="M 241 201 L 241 221 L 161 221 L 161 232.76" fill="none" stroke="#000000" stroke-width="2" stroke-miterlimit="10" pointer-events="stroke"/><path d="M 161 238.76 L 157 230.76 L 161 232.76 L 165 230.76 Z" fill="#000000" stroke="#000000" stroke-width="2" stroke-miterlimit="10" pointer-events="all"/><rect x="221" y="161" width="40" height="40" fill-opacity="0.7" fill="#dae8fc" stroke="#6c8ebf" stroke-opacity="0.7" stroke-width="2" pointer-events="all"/><path d="M 401 201 L 401 221 L 481 221 L 481 232.76" fill="none" stroke="#000000" stroke-width="2" stroke-miterlimit="10" pointer-events="stroke"/><path d="M 481 238.76 L 477 230.76 L 481 232.76 L 485 230.76 Z" fill="#000000" stroke="#000000" stroke-width="2" stroke-miterlimit="10" pointer-events="all"/><rect x="381" y="161" width="40" height="40" fill-opacity="0.7" fill="#dae8fc" stroke="#6c8ebf" stroke-opacity="0.7" stroke-width="2" pointer-events="all"/><path d="M 561 201 L 561 221 L 481 221 L 481 232.76" fill="none" stroke="#000000" stroke-width="2" stroke-miterlimit="10" pointer-events="stroke"/><path d="M 481 238.76 L 477 230.76 L 481 232.76 L 485 230.76 Z" fill="#000000" stroke="#000000" stroke-width="2" stroke-miterlimit="10" pointer-events="all"/><rect x="541" y="161" width="40" height="40" fill-opacity="0.7" fill="#dae8fc" stroke="#6c8ebf" stroke-opacity="0.7" stroke-width="2" pointer-events="all"/><path d="M 161 281 L 161 301 L 321 301 L 321 312.76" fill="none" stroke="#000000" stroke-width="2" stroke-miterlimit="10" pointer-events="stroke"/><path d="M 321 318.76 L 317 310.76 L 321 312.76 L 325 310.76 Z" fill="#000000" stroke="#000000" stroke-width="2" stroke-miterlimit="10" pointer-events="all"/><rect x="141" y="241" width="40" height="40" fill-opacity="0.85" fill="#dae8fc" stroke="#6c8ebf" stroke-opacity="0.85" stroke-width="2" pointer-events="all"/><path d="M 481 281 L 481 301 L 321 301 L 321 312.76" fill="none" stroke="#000000" stroke-width="2" stroke-miterlimit="10" pointer-events="stroke"/><path d="M 321 318.76 L 317 310.76 L 321 312.76 L 325 310.76 Z" fill="#000000" stroke="#000000" stroke-width="2" stroke-miterlimit="10" pointer-events="all"/><rect x="461" y="241" width="40" height="40" fill-opacity="0.85" fill="#dae8fc" stroke="#6c8ebf" stroke-opacity="0.85" stroke-width="2" pointer-events="all"/><rect x="301" y="321" width="40" height="40" fill="#dae8fc" stroke="#6c8ebf" stroke-width="2" pointer-events="all"/></g></svg>